<svg height="33" viewBox="0 0 167 33" width="167" xmlns="http://www.w3.org/2000/svg" xmlns:xlink="http://www.w3.org/1999/xlink"><clipPath id="a"><path d="m0 0h167v33h-167z"/></clipPath><g clip-path="url(#a)"><g fill="#fff" transform="translate(1 1)"><path d="m12.583 10.16v4.775a12.564 12.564 0 0 1 -2.892.353c-4.1 0-7.339-2.235-7.339-6.962 0-4.281 2.634-6.891 6.633-6.891a7.12 7.12 0 0 1 5.9 2.943l-.728-3.714a19.034 19.034 0 0 0 -4.819-.664c-6.351 0-9.338 4.3-9.338 8.725 0 4.892 3.457 8.027 8.609 8.027a10.051 10.051 0 0 0 4.444-.941l1.717.973v-6.624l.893-1.717h-4.135z"/><path d="m96.553 1.26h-2.634l.917 1.669-6.045 12.911-1.481 1.654h4.19l-1.082-1.481 2.182-5.113h5.821l2.189 5.079-.973 1.511h4.753l-1.459-1.7zm-3.405 8.373 2.357-5.48 2.374 5.48z" transform="translate(-66.072 -.954)"/><path d="m186.5 13.7v-10.723l1.053-1.717h-4.323l1.058 1.717v12.747l-1.058 1.771h10.606l.917-2.515a57.736 57.736 0 0 1 -8.161 1.175c-.071-.714-.092-1.514-.092-2.455z" transform="translate(-139.113 -.954)"/><path d="m631.694 17.494-1.459-1.7-6.372-14.534h-2.634l.917 1.669-6.046 12.911-1.481 1.654h4.186l-1.082-1.481 2.189-5.108h5.811l2.189 5.079-.973 1.506zm-11.241-7.861 2.352-5.48 2.367 5.48z" transform="translate(-466.694 -.954)"/><path d="m436.608 5.922c0-2.987-2.432-4.622-7.409-4.622h-5.109l1.058 1.717v12.747l-1.053 1.761h4.3l-1.058-1.764v-5.461l8.373 7.227h3.53l-9-6.984c4.203-.243 6.368-2.019 6.368-4.621zm-9.268 3.578v-4.425c0-.8.024-1.7.095-2.515h1.81c3.481 0 5.033 1.034 5.033 3.457.007 3.505-3.622 3.481-6.045 3.481z" transform="translate(-322.006 -.984)"/><path d="m526.272 2.977.966-1.717h-3.315l.092 1.411-5.621 11.6-6.279-13.011h-2.615l1.248 2.469-1.107 11.924-1.574 1.834h4.349l-1.151-1.669.564-9.927 6.071 12.068h.307l5.973-12.632.681 10.443-1.175 1.717h4.751l-1.224-1.717z" transform="translate(-386.062 -.954)"/><path d="m255 17.517h5.5c6.4 0 9.6-3.527 9.6-8.3 0-4.892-3.386-7.925-9.6-7.925h-5.5l1.058 1.717v12.745zm3.269-12.442c0-.752.024-1.6.071-2.374h1.929c5.057 0 7.477 2.432 7.477 6.68 0 4.07-2.3 6.68-7.477 6.726l-1.9.024c-.07-.705-.095-1.481-.095-2.4z" transform="translate(-193.618 -.976)"/><path d="m349.059 13.672v-4.235c2.352.049 5.41.187 7.526.423l-.353-1.669-7.173.117v-3.293c0-.8.024-1.669.07-2.491a45.159 45.159 0 0 1 8.027 1.129l-.916-2.433h-10.45l1.058 1.717v12.747l-1.058 1.781h10.679l.917-2.54a47.8 47.8 0 0 1 -8.232 1.2c-.07-.714-.095-1.514-.095-2.453z" transform="translate(-262.534 -.923)"/><path d="m279.762 107.949h2.369v-.511h-2.369v-1.438h2.5v-.516h-3.062v4.466h3.123v-.516h-2.561z" transform="translate(-211.941 -80.109)"/><path d="m382.323 107.375a1.07 1.07 0 0 0 .73-1.034c0-.7-.555-1.231-1.513-1.231s-1.511.53-1.511 1.231a1.07 1.07 0 0 0 .73 1.034 1.126 1.126 0 0 0 -.849 1.1c0 .713.581 1.282 1.639 1.282s1.642-.569 1.642-1.282a1.126 1.126 0 0 0 -.868-1.1zm-1.749-1c0-.46.319-.766.956-.766s.958.306.958.766-.319.766-.958.766-.956-.309-.956-.769zm.956 2.88c-.713 0-1.07-.345-1.07-.812s.358-.81 1.07-.81 1.073.345 1.073.81-.358.81-1.073.81z" transform="translate(-288.391 -79.829)"/><path d="m347.09 106.137v.542l1.187-.606v3.873h.55v-4.466h-.452z" transform="translate(-263.47 -80.109)"/><path d="m362.716 105.11a1.538 1.538 0 0 0 -1.659 1.557 1.489 1.489 0 0 0 1.518 1.537 1.384 1.384 0 0 0 .861-.28l-1.379 1.742h.671l.958-1.262a2.834 2.834 0 0 0 .662-1.7 1.525 1.525 0 0 0 -1.632-1.594zm-.015 2.61a1.057 1.057 0 1 1 1.087-1.053.989.989 0 0 1 -1.088 1.053z" transform="translate(-274.08 -79.829)"/><path d="m299.9 107.266-.73-.173c-.594-.141-.805-.358-.805-.7 0-.465.384-.73 1.022-.73a1.314 1.314 0 0 1 1.194.574l.44-.268a1.7 1.7 0 0 0 -1.622-.817c-.995 0-1.608.523-1.608 1.258 0 .606.421.995 1.245 1.192l.73.173c.557.134.793.365.793.73 0 .472-.4.786-1.08.786a1.4 1.4 0 0 1 -1.357-.791l-.455.26a1.781 1.781 0 0 0 1.807 1.041c1.058 0 1.666-.535 1.666-1.316.001-.62-.364-1.01-1.24-1.219z" transform="translate(-225.963 -79.859)"/><path d="m398.47 106.137v.542l1.187-.606v3.873h.55v-4.466h-.452z" transform="translate(-302.471 -80.109)"/><path d="m332.677 120.9a.384.384 0 1 0 .382.377.362.362 0 0 0 -.382-.377z" transform="translate(-252.231 -91.776)"/><path d="m316.17 106h1.494v3.943h.562v-3.943h1.494v-.523h-3.55z" transform="translate(-240.007 -80.109)"/></g></g></svg>