<svg fill="none" height="12" viewBox="0 0 18 12" width="18" xmlns="http://www.w3.org/2000/svg"><path d="m9.37663.0157213-3.48775.0650912c-1.12925.0226825-2.26131-.0225945-3.36842.2123935-1.684176.351093-1.803489 2.072574-1.928337 3.516574-.172028 2.03007-.105431 4.097.219208 6.11013.18327 1.12959.904509 1.80359 2.019879 1.87699 3.7652.2661 7.55549.2346 11.31229.1104.3968-.0114.7963-.0736 1.1875-.1444 1.9312-.3455 1.9783-2.29628 2.1035-3.93851.1249-1.65917.0722-3.32686-.1665-4.97473-.1914-1.36439-.5577-2.508571-2.1035-2.619025-1.9367-.1444343-3.8291-.260712-5.77127-.2236913.00009.0087776-.01107.0087776-.0166.0087776zm-2.05046 3.4542587c1.45951.85514 2.89113 1.69602 4.34233 2.54542-1.4622.85513-2.89116 1.69602-4.34233 2.54542z" fill="#004987"/></svg>